<svg width="1280" height="720" xmlns="http://www.w3.org/2000/svg" xmlns:xlink="http://www.w3.org/1999/xlink" overflow="hidden"><g><rect x="0" y="0" width="1280" height="720" fill="#FFFFFF"/><rect x="246.5" y="87.5001" width="406" height="391" stroke="#5B9BD5" stroke-width="0.666667" stroke-miterlimit="8" fill="#DAE3F3"/><text font-family="Calibri,Calibri_MSFontService,sans-serif" font-weight="400" font-size="24" transform="translate(255.217 113)">Main computer</text><g><g><g><path d="M530 564 529 564 529 598.011 549 598.011 549 564 530 564ZM548 597.011 530 597.011 530 565 548 565Z"/><path d="M550.5 559 527.5 559C526.948 559.002 526.502 559.448 526.5 560L526.5 602.013C526.502 602.564 526.948 603.011 527.5 603.013L550.5 603.013C551.051 603.01 551.498 602.564 551.5 602.013L551.5 560C551.498 559.448 551.052 559.002 550.5 559ZM550.5 602.013 527.5 602.013 527.5 560 550.5 560Z"/><path d="M537 562.5 541.5 562.5C541.776 562.5 542 562.276 542 562 542 561.724 541.776 561.5 541.5 561.5L537 561.5C536.724 561.5 536.5 561.724 536.5 562 536.5 562.276 536.724 562.5 537 562.5Z"/></g></g></g><g><g><g><path d="M584 564 583 564 583 598.011 603 598.011 603 564 584 564ZM602 597.011 584 597.011 584 565 602 565Z"/><path d="M604.5 559 581.5 559C580.948 559.002 580.502 559.448 580.5 560L580.5 602.013C580.502 602.564 580.948 603.011 581.5 603.013L604.5 603.013C605.051 603.01 605.498 602.564 605.5 602.013L605.5 560C605.498 559.448 605.052 559.002 604.5 559ZM604.5 602.013 581.5 602.013 581.5 560 604.5 560Z"/><path d="M591 562.5 595.5 562.5C595.776 562.5 596 562.276 596 562 596 561.724 595.776 561.5 595.5 561.5L591 561.5C590.724 561.5 590.5 561.724 590.5 562 590.5 562.276 590.724 562.5 591 562.5Z"/></g></g></g><g><g><g><path d="M630 564 629 564 629 598.011 649 598.011 649 564 630 564ZM648 597.011 630 597.011 630 565 648 565Z"/><path d="M650.5 559 627.5 559C626.948 559.002 626.502 559.448 626.5 560L626.5 602.013C626.502 602.564 626.948 603.011 627.5 603.013L650.5 603.013C651.051 603.01 651.498 602.564 651.5 602.013L651.5 560C651.498 559.448 651.052 559.002 650.5 559ZM650.5 602.013 627.5 602.013 627.5 560 650.5 560Z"/><path d="M637 562.5 641.5 562.5C641.776 562.5 642 562.276 642 562 642 561.724 641.776 561.5 641.5 561.5L637 561.5C636.724 561.5 636.5 561.724 636.5 562 636.5 562.276 636.724 562.5 637 562.5Z"/></g></g></g><text font-family="Calibri,Calibri_MSFontService,sans-serif" font-weight="400" font-size="24" transform="translate(551.185 640)">Referees</text><text font-family="Calibri,Calibri_MSFontService,sans-serif" font-weight="400" font-size="24" transform="translate(405.844 387)">owlcms</text><text font-family="Calibri,Calibri_MSFontService,sans-serif" font-weight="400" font-size="19" transform="translate(465.654 184)">Announcer</text><text font-family="Calibri,Calibri_MSFontService,sans-serif" font-weight="400" font-size="19" transform="translate(476.921 207)">browse</text><text font-family="Calibri,Calibri_MSFontService,sans-serif" font-weight="400" font-size="19" transform="translate(532.548 207)">r</text><g><g><g><path d="M294 598.994 294 563 236 563 236 599.01ZM238 565 292 565 292 596.993 238 597.01Z"/><path d="M233 562C233 560.895 233.895 560 235 560L295 560C296.105 560 297 560.895 297 562L297 603.013 299 603.013 299 562C299 559.791 297.209 558 295 558L235 558C232.791 558 231 559.791 231 562L231 603.013 233 603.013Z"/><path d="M270 605.994 270 607.994 260 607.994 260 605.994 219 605.994 219 607.994C219.003 610.754 221.24 612.991 224 612.994L306 612.994C308.76 612.991 310.997 610.754 311 607.994L311 605.994ZM306 610.994 224 610.994C222.343 610.994 221 609.651 221 607.994L258 607.994C257.964 609.062 258.8 609.958 259.868 609.994 259.912 609.995 259.956 609.995 260 609.994L270 609.994C271.068 610.031 271.964 609.194 272 608.126 272.001 608.082 272.001 608.038 272 607.994L309 607.994C309 609.651 307.657 610.994 306 610.994Z"/></g></g></g><g><g><g><path d="M416 598.994 416 563 358 563 358 599.01ZM360 565 414 565 414 596.993 360 597.01Z"/><path d="M355 562C355 560.895 355.895 560 357 560L417 560C418.105 560 419 560.895 419 562L419 603.013 421 603.013 421 562C421 559.791 419.209 558 417 558L357 558C354.791 558 353 559.791 353 562L353 603.013 355 603.013Z"/><path d="M392 605.994 392 607.994 382 607.994 382 605.994 341 605.994 341 607.994C341.003 610.754 343.24 612.991 346 612.994L428 612.994C430.76 612.991 432.997 610.754 433 607.994L433 605.994ZM428 610.994 346 610.994C344.343 610.994 343 609.651 343 607.994L380 607.994C379.964 609.062 380.8 609.958 381.868 609.994 381.912 609.995 381.956 609.995 382 609.994L392 609.994C393.068 610.031 393.964 609.194 394 608.126 394.001 608.082 394.001 608.038 394 607.994L431 607.994C431 609.651 429.657 610.994 428 610.994Z"/></g></g></g><text font-family="Calibri,Calibri_MSFontService,sans-serif" font-weight="400" font-size="24" transform="translate(234.193 640)">Displays</text><text font-family="Calibri,Calibri_MSFontService,sans-serif" font-weight="400" font-size="24" transform="translate(318.526 640)">and Technical</text><text font-family="Calibri,Calibri_MSFontService,sans-serif" font-weight="400" font-size="24" transform="translate(254.146 669)">Officials’ Consoles</text><g><g><g><path d="M619 402C619 406.418 606.464 410 591 410 575.536 410 563 406.418 563 402 563 397.582 575.536 394 591 394 606.464 394 619 397.582 619 402Z"/><path d="M611 422C609.8 422 609 421.2 609 420 609 418.8 609.8 418 611 418 612.2 418 613 418.8 613 420 613 421.2 612.2 422 611 422ZM591 414C575.6 414 563 410.4 563 406L563 422C563 426.4 575.6 430 591 430 606.4 430 619 426.4 619 422L619 406C619 410.4 606.4 414 591 414Z"/><path d="M611 442C609.8 442 609 441.2 609 440 609 438.8 609.8 438 611 438 612.2 438 613 438.8 613 440 613 441.2 612.2 442 611 442ZM591 434C575.6 434 563 430.4 563 426L563 442C563 446.4 575.6 450 591 450 606.4 450 619 446.4 619 442L619 426C619 430.4 606.4 434 591 434Z"/><path d="M611 462C609.8 462 609 461.2 609 460 609 458.8 609.8 458 611 458 612.2 458 613 458.8 613 460 613 461.2 612.2 462 611 462ZM591 454C575.6 454 563 450.4 563 446L563 462C563 466.4 575.6 470 591 470 606.4 470 619 466.4 619 462L619 446C619 450.4 606.4 454 591 454Z"/></g></g></g><path d="M286.676 594.696 246.324 594.696 246.324 570.304 286.676 570.304ZM291 568.87C291 567.285 289.71 566 288.118 566L244.882 566C243.29 566 242 567.285 242 568.87L242 599 291 599Z" fill-rule="evenodd"/><path d="M267 573C261.477 573 257 577.253 257 582.5 257 587.747 261.477 592 267 592 272.523 592 277 587.747 277 582.5 277 577.253 272.523 573 267 573ZM267.714 583.179 270.993 583.179C270.62 585.518 269.471 587.683 267.714 589.36ZM267.714 581.821 267.714 575.633C269.473 577.312 270.621 579.479 270.993 581.821ZM266.286 581.821 263.114 581.821C263.47 579.52 264.579 577.383 266.286 575.714ZM266.286 583.179 266.286 589.286C264.582 587.615 263.473 585.479 263.114 583.179ZM261.679 581.821 258.621 581.821C258.939 578.267 261.7 575.344 265.386 574.662 263.349 576.593 262.046 579.111 261.679 581.821ZM261.679 583.179C262.046 585.894 263.355 588.415 265.4 590.344 261.709 589.663 258.942 586.738 258.621 583.179ZM272.429 583.179 275.379 583.179C275.066 586.693 272.362 589.595 268.729 590.317 270.764 588.395 272.066 585.883 272.429 583.179ZM272.429 581.821C272.063 579.124 270.77 576.617 268.75 574.69 272.373 575.419 275.065 578.316 275.379 581.821Z" fill-rule="evenodd"/><path d="M405.676 594.696 365.324 594.696 365.324 570.304 405.676 570.304ZM410 568.87C410 567.285 408.71 566 407.118 566L363.882 566C362.29 566 361 567.285 361 568.87L361 599 410 599Z" fill-rule="evenodd"/><path d="M385 573C379.477 573 375 577.253 375 582.5 375 587.747 379.477 592 385 592 390.523 592 395 587.747 395 582.5 395 577.253 390.523 573 385 573ZM385.714 583.179 388.993 583.179C388.62 585.518 387.471 587.683 385.714 589.36ZM385.714 581.821 385.714 575.633C387.473 577.312 388.621 579.479 388.993 581.821ZM384.286 581.821 381.114 581.821C381.47 579.52 382.579 577.383 384.286 575.714ZM384.286 583.179 384.286 589.286C382.582 587.615 381.473 585.479 381.114 583.179ZM379.679 581.821 376.621 581.821C376.939 578.267 379.7 575.344 383.386 574.662 381.349 576.593 380.046 579.111 379.679 581.821ZM379.679 583.179C380.046 585.894 381.355 588.415 383.4 590.344 379.709 589.663 376.942 586.738 376.621 583.179ZM390.429 583.179 393.379 583.179C393.066 586.693 390.362 589.595 386.729 590.317 388.764 588.395 390.066 585.883 390.429 583.179ZM390.429 581.821C390.063 579.124 388.77 576.617 386.75 574.69 390.373 575.419 393.065 578.316 393.379 581.821Z" fill-rule="evenodd"/><g><g><g><path d="M296.083 233.75 77.9167 233.75 77.9167 101.292 296.083 101.292 296.083 233.75ZM319.458 93.5C319.458 84.9292 312.446 77.9167 303.875 77.9167L70.125 77.9167C61.5542 77.9167 54.5417 84.9292 54.5417 93.5L54.5417 257.125 319.458 257.125 319.458 93.5Z" transform="matrix(1.01604 0 0 1 260 60)"/><path d="M210.375 272.708 210.375 276.604C210.375 278.942 208.817 280.5 206.479 280.5L167.521 280.5C165.183 280.5 163.625 278.942 163.625 276.604L163.625 272.708 7.79167 272.708 7.79167 280.5C7.79167 289.071 14.8042 296.083 23.375 296.083L350.625 296.083C359.196 296.083 366.208 289.071 366.208 280.5L366.208 272.708 210.375 272.708Z" transform="matrix(1.01604 0 0 1 260 60)"/></g></g></g><g><g><g><path d="M22.7604 13.8542 72.2396 13.8542 72.2396 81.1458 22.7604 81.1458 22.7604 13.8542ZM16.8229 87.0833 78.1771 87.0833 78.1771 7.91667 16.8229 7.91667 16.8229 87.0833Z" transform="matrix(1.01053 0 0 1 339 195)"/><path d="M49.4792 22.7604 66.3021 22.7604 66.3021 26.7188 49.4792 26.7188Z" transform="matrix(1.01053 0 0 1 339 195)"/><path d="M49.4792 38.5938 66.3021 38.5938 66.3021 42.5521 49.4792 42.5521Z" transform="matrix(1.01053 0 0 1 339 195)"/><path d="M49.4792 70.2604 66.3021 70.2604 66.3021 74.2188 49.4792 74.2188Z" transform="matrix(1.01053 0 0 1 339 195)"/><path d="M49.4792 54.4271 66.3021 54.4271 66.3021 58.3854 49.4792 58.3854Z" transform="matrix(1.01053 0 0 1 339 195)"/><path d="M43.3438 20.5833 40.5729 17.8125 34.0417 24.3438 31.4687 21.7708 28.6979 24.5417 34.0417 29.8854Z" transform="matrix(1.01053 0 0 1 339 195)"/><path d="M43.3438 36.4167 40.5729 33.6458 34.0417 40.1771 31.4687 37.6042 28.6979 40.375 34.0417 45.7188Z" transform="matrix(1.01053 0 0 1 339 195)"/><path d="M43.3438 52.25 40.5729 49.4792 34.0417 56.0104 31.4687 53.4375 28.6979 56.2083 34.0417 61.5521Z" transform="matrix(1.01053 0 0 1 339 195)"/><path d="M43.3438 67.8854 40.5729 65.1146 34.0417 71.6458 31.4687 69.0729 28.6979 71.8438 34.0417 77.1875Z" transform="matrix(1.01053 0 0 1 339 195)"/></g></g></g><path d="M547.353 272 466.647 272 466.647 221 547.353 221ZM556 218C556 214.686 553.419 212 550.235 212L463.765 212C460.581 212 458 214.686 458 218L458 281 556 281Z" fill-rule="evenodd"/><path d="M507 226C495.954 226 487 235.178 487 246.5 487 257.822 495.954 267 507 267 518.046 267 527 257.822 527 246.5 527 235.178 518.046 226 507 226ZM508.429 247.964 514.986 247.964C514.239 253.012 511.942 257.685 508.429 261.304ZM508.429 245.036 508.429 231.681C511.946 235.304 514.243 239.982 514.986 245.036ZM505.571 245.036 499.229 245.036C499.939 240.069 502.158 235.458 505.571 231.857ZM505.571 247.964 505.571 261.143C502.165 257.538 499.946 252.929 499.229 247.964ZM496.357 245.036 490.243 245.036C490.877 237.366 496.4 231.059 503.772 229.587 499.699 233.753 497.091 239.187 496.357 245.036ZM496.357 247.964C497.092 253.823 499.711 259.265 503.8 263.427 496.418 261.957 490.884 255.645 490.243 247.964ZM517.857 247.964 523.757 247.964C523.132 255.547 517.724 261.81 510.457 263.369 514.528 259.221 517.132 253.8 517.857 247.964ZM517.857 245.036C517.126 239.215 514.539 233.805 510.5 229.646 517.746 231.22 523.131 237.471 523.757 245.036Z" fill-rule="evenodd"/><text font-family="Calibri,Calibri_MSFontService,sans-serif" font-weight="400" font-size="19" transform="translate(358.615 176)">Control</text><text font-family="Calibri,Calibri_MSFontService,sans-serif" font-weight="400" font-size="19" transform="translate(365.828 199)">Panel</text><g><g><g><path d="M475.3 424.3C471.1 424.3 467.8 420.9 467.8 416.8 467.8 412.7 471.2 409.3 475.3 409.3 479.5 409.3 482.8 412.7 482.8 416.8 482.8 420.9 479.4 424.3 475.3 424.3ZM492.2 412.1C491.8 410.7 491.3 409.4 490.6 408.2L492.2 403.5 488.6 399.9 483.9 401.5C482.7 400.8 481.4 400.3 480 399.9L477.8 395.5 472.8 395.5 470.6 399.9C469.2 400.3 467.9 400.8 466.7 401.5L462 399.9 458.4 403.5 460 408.2C459.3 409.4 458.8 410.7 458.4 412.1L454 414.3 454 419.3 458.4 421.5C458.8 422.9 459.3 424.2 460 425.4L458.4 430.1 461.9 433.6 466.6 432C467.8 432.7 469.1 433.2 470.5 433.6L472.7 438 477.7 438 479.9 433.6C481.3 433.2 482.6 432.7 483.8 432L488.5 433.6 492.1 430.1 490.5 425.4C491.2 424.2 491.8 422.8 492.2 421.5L496.6 419.3 496.6 414.3 492.2 412.1Z"/><path d="M452.7 460.7C448.5 460.7 445.2 457.3 445.2 453.2 445.2 449 448.6 445.7 452.7 445.7 456.9 445.7 460.2 449.1 460.2 453.2 460.2 457.3 456.9 460.7 452.7 460.7L452.7 460.7ZM468 444.6 469.6 439.9 466 436.3 461.3 437.9C460.1 437.2 458.7 436.7 457.4 436.3L455.2 431.9 450.2 431.9 448 436.3C446.6 436.7 445.3 437.2 444.1 437.9L439.4 436.3 435.9 439.8 437.4 444.5C436.7 445.7 436.2 447.1 435.8 448.4L431.4 450.6 431.4 455.6 435.8 457.8C436.2 459.2 436.7 460.5 437.4 461.7L435.9 466.4 439.4 469.9 444.1 468.4C445.3 469.1 446.6 469.6 448 470L450.2 474.4 455.2 474.4 457.4 470C458.8 469.6 460.1 469.1 461.3 468.4L466 470 469.5 466.4 468 461.8C468.7 460.6 469.2 459.3 469.6 457.9L474 455.7 474 450.7 469.6 448.5C469.2 447.1 468.7 445.8 468 444.6Z"/></g></g></g><path d="M15-3 145.795-3 145.97 11.1534 139.97 11.2277 139.832 0.0371595 142.832 3 15 3ZM18 9 0 0 18-9ZM151.822 7.77784 143.663 26.1745 133.841 8.60959Z" fill="#4472C4" transform="matrix(1.83697e-16 1 1 -1.83697e-16 387 290)"/><path d="M9.90127 2.44192 152.808 69.5798 151.107 73.2002 8.20041 6.06229ZM8.30982 10.5331 0 0 13.4124-0.327982ZM152.698 65.109 161.008 75.6421 147.596 75.9701Z" fill="#ED7D31" transform="matrix(1 0 0 -1 264 537.642)"/><path d="M7.63315 6.76276 49.6386 62.2034 46.4504 64.619 4.44492 9.17838ZM2.4645 13.1881 0 0 12.0292 5.94127ZM51.6191 58.1937 54.0836 71.3818 42.0544 65.4406Z" fill="#ED7D31" transform="matrix(1 0 0 -1 387 549.382)"/><path d="M532.849 544.945 465.993 483.251 468.705 480.312 535.562 542.006ZM536.805 537.71 541.554 550.257 528.667 546.529ZM464.75 487.547 460 475 472.888 478.729Z" fill="#ED7D31"/><path d="M583.697 546.667 484.021 476.397 486.326 473.127 586.002 543.397ZM586.672 538.976 593.023 550.794 579.758 548.784ZM483.351 480.818 477 469 490.265 471.01Z" fill="#ED7D31"/><path d="M628.956 548.507 505.446 471.967 507.553 468.567 631.063 545.107ZM631.47 540.654 638.51 552.075 625.149 550.854ZM505.04 476.421 498 465 511.361 466.221Z" fill="#ED7D31"/><text font-family="Calibri,Calibri_MSFontService,sans-serif" font-weight="400" font-size="24" transform="translate(545.923 384)">database</text><path d="M3.73335 9.4901 22.9644 116.754 19.0272 117.46-0.203876 10.196ZM-3.78815 12.8705 0 0 8.02351 10.7528ZM26.5487 114.079 22.7605 126.95 14.737 116.197Z" fill="#ED7D31" transform="matrix(1 0 0 -1 483 393.95)"/><path d="M516 432 541.223 432 541.223 438 516 438ZM519 444 501 435 519 426ZM538.223 426 556.223 435 538.223 444Z" fill="#70AD47"/><text font-family="Calibri,Calibri_MSFontService,sans-serif" font-weight="400" font-size="24" transform="translate(691.983 239)">1.</text><text font-family="Calibri,Calibri_MSFontService,sans-serif" font-weight="400" font-size="24" transform="translate(727.983 239)">The Control Panel</text><text fill="#4472C4" font-family="Calibri,Calibri_MSFontService,sans-serif" font-weight="400" font-size="24" transform="translate(727.983 268)">Starts/Stops</text><text font-family="Calibri,Calibri_MSFontService,sans-serif" font-weight="400" font-size="24" transform="translate(852.003 268)">the owlcms</text><text font-family="Calibri,Calibri_MSFontService,sans-serif" font-weight="400" font-size="24" transform="translate(727.983 297)">program</text><text font-family="Calibri,Calibri_MSFontService,sans-serif" font-weight="400" font-size="24" transform="translate(691.983 326)">2.</text><text font-family="Calibri,Calibri_MSFontService,sans-serif" font-weight="400" font-size="24" transform="translate(727.983 326)">Owlcms</text><text fill="#ED7D31" font-family="Calibri,Calibri_MSFontService,sans-serif" font-weight="400" font-size="24" transform="translate(810.65 326)">listens</text><text fill="#ED7D31" font-family="Calibri,Calibri_MSFontService,sans-serif" font-weight="400" font-size="24" transform="translate(877.956 326)">and</text><text fill="#ED7D31" font-family="Calibri,Calibri_MSFontService,sans-serif" font-weight="400" font-size="24" transform="translate(920.29 326)">talks</text><text font-family="Calibri,Calibri_MSFontService,sans-serif" font-weight="400" font-size="24" transform="translate(970.443 326)">to</text><text font-family="Calibri,Calibri_MSFontService,sans-serif" font-weight="400" font-size="24" transform="translate(727.983 355)">the web browsers</text><text font-family="Calibri,Calibri_MSFontService,sans-serif" font-weight="400" font-size="24" transform="translate(691.983 383)">3.</text><text font-family="Calibri,Calibri_MSFontService,sans-serif" font-weight="400" font-size="24" transform="translate(727.983 383)">Owlcms</text><text fill="#70AD47" font-family="Calibri,Calibri_MSFontService,sans-serif" font-weight="400" font-size="24" transform="translate(810.65 383)">updates</text><text font-family="Calibri,Calibri_MSFontService,sans-serif" font-weight="400" font-size="24" transform="translate(894.503 383)">its database</text></g></svg>